HIERARCHY
ROOT Hips
{
  OFFSET 5.84602e-005 68.8428 3.50346
  CHANNELS 6 Xposition Yposition Zposition Zrotation Xrotation Yrotation
  JOINT Spine
  {
    OFFSET 0 8.597 -4.6522
    CHANNELS 3 Zrotation Xrotation Yrotation
    JOINT Spine1
    {
      OFFSET 0 7.8454 0.4098
      CHANNELS 3 Zrotation Xrotation Yrotation
      JOINT Spine2
      {
        OFFSET 0 9.7078 -2.1609
        CHANNELS 3 Zrotation Xrotation Yrotation
        JOINT Neck
        {
          OFFSET 0 21.8761 -0.4549
          CHANNELS 3 Zrotation Xrotation Yrotation
          JOINT Head
          {
            OFFSET 0 12.3537 3.3602
            CHANNELS 3 Zrotation Xrotation Yrotation
            End Site
            {
              OFFSET 0.0001 18.9506 0.5657
            }
          }
        }
        JOINT LeftShoulder
        {
          OFFSET 2.2086 21.1115 7.2329
          CHANNELS 3 Zrotation Xrotation Yrotation
          JOINT LeftArm
          {
            OFFSET 13.1193 3.0282 -4.8998
            CHANNELS 3 Zrotation Xrotation Yrotation
            JOINT LeftForeArm
            {
              OFFSET 27.4081 -0.0973053 -0.2375
              CHANNELS 3 Zrotation Xrotation Yrotation
              JOINT LeftHand
              {
                OFFSET 22.8641 0.0662994 -0.1369
                CHANNELS 3 Zrotation Xrotation Yrotation
                JOINT LeftHandIndex1
                {
                  OFFSET 8.8614 0.775009 2.4612
                  CHANNELS 3 Zrotation Xrotation Yrotation
                  JOINT LeftHandIndex2
                  {
                    OFFSET 3.3146 -0.808304 0.5841
                    CHANNELS 3 Zrotation Xrotation Yrotation
                    JOINT LeftHandIndex3
                    {
                      OFFSET 2.2628 -0.552002 0.3989
                      CHANNELS 3 Zrotation Xrotation Yrotation
                      End Site
                      {
                        OFFSET 1.6102 -0.4807 0.2612
                      }
                    }
                  }
                }
                JOINT LeftHandMiddle1
                {
                  OFFSET 8.9937 0.895004 0.2143
                  CHANNELS 3 Zrotation Xrotation Yrotation
                  JOINT LeftHandMiddle2
                  {
                    OFFSET 4.0984 0.0113983 -0.0242
                    CHANNELS 3 Zrotation Xrotation Yrotation
                    JOINT LeftHandMiddle3
                    {
                      OFFSET 2.2716 0.00689697 -0.0138001
                      CHANNELS 3 Zrotation Xrotation Yrotation
                      End Site
                      {
                        OFFSET 2.0404 -0.1441 0.0027
                      }
                    }
                  }
                }
                JOINT LeftHandRing1
                {
                  OFFSET 8.5234 0.597198 -2.0164
                  CHANNELS 3 Zrotation Xrotation Yrotation
                  JOINT LeftHandRing2
                  {
                    OFFSET 3.7188 -0.188293 -0.2328
                    CHANNELS 3 Zrotation Xrotation Yrotation
                    JOINT LeftHandRing3
                    {
                      OFFSET 2.1191 -0.106598 -0.1332
                      CHANNELS 3 Zrotation Xrotation Yrotation
                      End Site
                      {
                        OFFSET 1.8737 -0.2304 -0.0886
                      }
                    }
                  }
                }
                JOINT LeftHandPinky1
                {
                  OFFSET 7.9094 -0.601089 -3.4825
                  CHANNELS 3 Zrotation Xrotation Yrotation
                  JOINT LeftHandPinky2
                  {
                    OFFSET 2.2874 -0.477005 -0.6314
                    CHANNELS 3 Zrotation Xrotation Yrotation
                    JOINT LeftHandPinky3
                    {
                      OFFSET 1.6774 -0.349396 -0.4633
                      CHANNELS 3 Zrotation Xrotation Yrotation
                      End Site
                      {
                        OFFSET 1.4888 -0.4091 -0.3416
                      }
                    }
                  }
                }
                JOINT LeftHandThumb1
                {
                  OFFSET 1.833 -1.3875 1.3896
                  CHANNELS 3 Zrotation Xrotation Yrotation
                  JOINT LeftHandThumb2
                  {
                    OFFSET 3.4129 -1.121 2.5732
                    CHANNELS 3 Zrotation Xrotation Yrotation
                    JOINT LeftHandThumb3
                    {
                      OFFSET 2.2474 -0.804199 1.6192
                      CHANNELS 3 Zrotation Xrotation Yrotation
                      End Site
                      {
                        OFFSET 1.6527 -0.5689 1.1317
                      }
                    }
                  }
                }
              }
            }
          }
        }
        JOINT RightShoulder
        {
          OFFSET -2.2086 21.1115 7.2329
          CHANNELS 3 Zrotation Xrotation Yrotation
          JOINT RightArm
          {
            OFFSET -13.1216 3.0287 -4.9007
            CHANNELS 3 Zrotation Xrotation Yrotation
            JOINT RightForeArm
            {
              OFFSET -27.4081 -0.0973053 -0.2375
              CHANNELS 3 Zrotation Xrotation Yrotation
              JOINT RightHand
              {
                OFFSET -22.8641 0.0664063 -0.1369
                CHANNELS 3 Zrotation Xrotation Yrotation
                JOINT RightHandIndex1
                {
                  OFFSET -8.8614 0.774994 2.4612
                  CHANNELS 3 Zrotation Xrotation Yrotation
                  JOINT RightHandIndex2
                  {
                    OFFSET -3.3146 -0.808304 0.5841
                    CHANNELS 3 Zrotation Xrotation Yrotation
                    JOINT RightHandIndex3
                    {
                      OFFSET -2.2628 -0.552002 0.3989
                      CHANNELS 3 Zrotation Xrotation Yrotation
                      End Site
                      {
                        OFFSET -1.6102 -0.4807 0.2612
                      }
                    }
                  }
                }
                JOINT RightHandMiddle1
                {
                  OFFSET -8.9937 0.894989 0.2143
                  CHANNELS 3 Zrotation Xrotation Yrotation
                  JOINT RightHandMiddle2
                  {
                    OFFSET -4.0984 0.0113983 -0.0242
                    CHANNELS 3 Zrotation Xrotation Yrotation
                    JOINT RightHandMiddle3
                    {
                      OFFSET -2.2716 0.00691223 -0.0138001
                      CHANNELS 3 Zrotation Xrotation Yrotation
                      End Site
                      {
                        OFFSET -2.0404 -0.1441 0.0027
                      }
                    }
                  }
                }
                JOINT RightHandRing1
                {
                  OFFSET -8.5234 0.597198 -2.0164
                  CHANNELS 3 Zrotation Xrotation Yrotation
                  JOINT RightHandRing2
                  {
                    OFFSET -3.7188 -0.188309 -0.2328
                    CHANNELS 3 Zrotation Xrotation Yrotation
                    JOINT RightHandRing3
                    {
                      OFFSET -2.1191 -0.106598 -0.1332
                      CHANNELS 3 Zrotation Xrotation Yrotation
                      End Site
                      {
                        OFFSET -1.8737 -0.2304 -0.0886
                      }
                    }
                  }
                }
                JOINT RightHandPinky1
                {
                  OFFSET -7.9094 -0.601105 -3.4825
                  CHANNELS 3 Zrotation Xrotation Yrotation
                  JOINT RightHandPinky2
                  {
                    OFFSET -2.2874 -0.477005 -0.6314
                    CHANNELS 3 Zrotation Xrotation Yrotation
                    JOINT RightHandPinky3
                    {
                      OFFSET -1.6774 -0.349396 -0.4633
                      CHANNELS 3 Zrotation Xrotation Yrotation
                      End Site
                      {
                        OFFSET -1.4888 -0.4091 -0.3416
                      }
                    }
                  }
                }
                JOINT RightHandThumb1
                {
                  OFFSET -1.833 -1.38751 1.3896
                  CHANNELS 3 Zrotation Xrotation Yrotation
                  JOINT RightHandThumb2
                  {
                    OFFSET -3.41299 -1.12099 2.5732
                    CHANNELS 3 Zrotation Xrotation Yrotation
                    JOINT RightHandThumb3
                    {
                      OFFSET -2.24741 -0.804108 1.6192
                      CHANNELS 3 Zrotation Xrotation Yrotation
                      End Site
                      {
                        OFFSET -1.6527 -0.5689 1.1317
                      }
                    }
                  }
                }
              }
            }
          }
        }
      }
    }
  }
  JOINT RightUpLeg
  {
    OFFSET -9.1966 3.8861 -0.7581
    CHANNELS 3 Zrotation Xrotation Yrotation
    JOINT RightLeg
    {
      OFFSET -0.7359 -41.0265 0
      CHANNELS 3 Zrotation Xrotation Yrotation
      JOINT RightFoot
      {
        OFFSET 0 -40.2855 0
        CHANNELS 3 Zrotation Xrotation Yrotation
        JOINT RightToeBase
        {
          OFFSET 0 -5.6122 11.7359
          CHANNELS 3 Zrotation Xrotation Yrotation
          End Site
          {
            OFFSET 0 0 7.8731
          }
        }
      }
    }
  }
  JOINT LeftUpLeg
  {
    OFFSET 9.1965 3.8864 -0.7581
    CHANNELS 3 Zrotation Xrotation Yrotation
    JOINT LeftLeg
    {
      OFFSET 0.7359 -41.0268 0
      CHANNELS 3 Zrotation Xrotation Yrotation
      JOINT LeftFoot
      {
        OFFSET 0 -40.2855 0
        CHANNELS 3 Zrotation Xrotation Yrotation
        JOINT LeftToeBase
        {
          OFFSET 0 -5.6122 11.7359
          CHANNELS 3 Zrotation Xrotation Yrotation
          End Site
          {
            OFFSET 0 0 7.8731
          }
        }
      }
    }
  }
}
MOTION
Frames:	4
Frame Time:	0.0333333
5.84602e-005 68.8428 3.50346 0 0 -0 0 0 -0 0 0 -0 0 0 -0 0 0 -0 0 0 -0 0 0 -0 0 0 -0 0 0 -0 0 0 -0 0 0 -0 0 0 -0 0 0 -0 0 0 -0 -0.0146107 -8.87603e-005 -2.63497e-007 2.99804e-018 -2.42657e-020 -1.42182e-022 0 0 -0 -0.0187562 -0.001176 5.858e-005 5.06224e-018 3.88251e-019 1.21329e-020 0 0 -0 -0.012269 -0.00324817 0.000675346 -1.74678e-018 3.88251e-019 -0 0 0 -0 0 0 -0 0 0 -0 0 0 -0 0 0 -0 0 0 -0 0 0 -0 0 0 -0 0 0 -0 0 0 -0 0 0 -0 0.0149955 -9.10982e-005 2.64101e-007 -9.69331e-018 1.21329e-020 -4.7394e-023 0 0 -0 0.0189956 -0.00119102 -5.96516e-005 -5.41541e-019 0 2.42657e-020 0 0 -0 0.0122698 -0.00324857 -0.000673756 -2.00796e-019 0 -1.94126e-019 0 0 -0 0 0 -0 0 0 -0 3.39842 1.33031 -0.0637918 -5.65207e-008 0.834868 -0.000436188 -3.39935 -2.16518 -0.0642563 -8.89002e-024 -1.18485e-023 -1.48106e-024 -3.39844 1.35642 0.0640283 -3.18788e-007 0.782166 -0.000588827 3.39931 -2.13858 0.0634662 1.1399e-023 0 -0 
41.3088 39.3269 18.7227 179.97 59.0055 -29.9888 -1.30083 10.2023 3.99751 -3.41702 20.2822 8.43743 -3.41702 20.2822 8.43744 7.69365e-005 13.997 -3.96931e-005 -0.0926704 -0.148625 -0.000119507 -32.5695 -2.20816 -7.86301 -36.7942 54.849 1.70256 8.71334 34.9892 -11.4263 6.79453 -16.7488 -6.85669 3.18055e-015 1.49089e-015 1.27222e-014 2.38542e-015 1.68967e-015 1.90833e-014 2.38542e-015 1.68967e-015 1.27222e-014 3.18055e-015 1.49089e-015 1.27222e-014 -0.0145944 -8.85861e-005 -8.22968e-007 3.97569e-016 9.93923e-016 6.36111e-015 3.18055e-015 1.49089e-015 1.27222e-014 -0.0187407 -0.00117491 6.66218e-005 7.95139e-016 -2.38542e-015 -0 3.18055e-015 1.49089e-015 1.27222e-014 -0.0122677 -0.00324743 0.000678355 7.15625e-015 2.68359e-014 -3.18055e-015 3.18055e-015 1.49089e-015 1.27222e-014 2.38542e-015 1.68967e-015 1.90833e-014 2.38542e-015 1.68967e-015 1.27222e-014 -18.9628 -14.0539 1.26538 71.7676 54.7916 -4.95444 -17.6547 31.519 39.7372 2.09805 -2.35889 -14.9678 -3.97569e-016 3.97569e-016 3.18055e-015 -7.95139e-016 4.96962e-016 -0 -7.95139e-016 2.98177e-016 -0 -3.97569e-016 3.97569e-016 3.18055e-015 0.0150041 -9.12146e-005 -8.81972e-007 3.97569e-016 -2.5842e-014 3.18055e-015 -3.97569e-016 3.97569e-016 3.18055e-015 0.0190068 -0.00119125 -7.18235e-005 0 1.98785e-015 -0 -3.97569e-016 3.97569e-016 3.18055e-015 0.0122617 -0.00324587 -0.000676971 7.95139e-016 -1.2921e-015 -0 -3.97569e-016 3.97569e-016 3.18055e-015 -7.95139e-016 4.96962e-016 -0 -7.95139e-016 2.98177e-016 -0 -76.9 -36.4193 -68.6773 -121.389 66.6079 148.791 -27.1228 8.8601 4.098 1.31893e-006 3.2758e-007 -4.31637e-006 63.3565 -51.028 64.243 3.12652 19.9246 -0.0795382 3.78205 -2.17253 0.0717379 -6.42482e-009 4.42024e-007 1.10908e-007 
41.3072 39.326 18.7196 179.97 59.0055 -29.9888 -1.22155 10.0185 4.0212 -3.24164 19.9204 8.45914 -3.24165 19.9205 8.45914 -0.520396 13.9963 0.12581 -0.109343 -0.199723 -0.162827 -33.6188 -1.8644 -7.2033 -35.7594 54.8713 1.64423 8.23823 35.0609 -10.8341 6.70873 -16.1857 -7.16133 3.97569e-016 -1.98785e-015 -3.18055e-015 3.97569e-016 -1.98785e-015 -3.18055e-015 3.97569e-016 -2.48481e-015 -3.18055e-015 3.97569e-016 -1.98785e-015 -3.18055e-015 -0.0146393 -8.87494e-005 7.63246e-006 -8.27607e-032 -1.49089e-015 -3.18055e-015 3.97569e-016 -1.98785e-015 -3.18055e-015 -0.0188201 -0.00118005 5.27583e-005 -2.72879e-008 -1.40346e-007 -2.76278e-006 3.97569e-016 -1.98785e-015 -3.18055e-015 -0.0122597 -0.0032463 0.000664125 -8.27607e-032 1.49089e-015 3.18055e-015 3.97569e-016 -1.98785e-015 -3.18055e-015 3.97569e-016 -1.98785e-015 -3.18055e-015 3.97569e-016 -2.48481e-015 -3.18055e-015 -18.8008 -13.2009 1.10754 71.7676 54.7916 -4.95447 -17.6548 31.519 39.7372 2.18316 -1.92988 -15.151 -3.97569e-016 -5.96354e-016 -3.18055e-015 -0 -3.97569e-016 -0 -3.97569e-016 -1.98785e-016 -3.18055e-015 -3.97569e-016 -5.96354e-016 -3.18055e-015 0.0149625 -9.04978e-005 -1.44598e-005 7.69026e-009 1.07322e-007 -1.3171e-006 -3.97569e-016 -5.96354e-016 -3.18055e-015 0.0189514 -0.00118874 -4.77094e-005 -4.41391e-032 7.95139e-016 3.18055e-015 -3.97569e-016 -5.96354e-016 -3.18055e-015 0.0122219 -0.00323492 -0.000677276 -7.95139e-016 9.93923e-016 -3.18055e-015 -3.97569e-016 -5.96354e-016 -3.18055e-015 -0 -3.97569e-016 -0 -3.97569e-016 -1.98785e-016 -3.18055e-015 -77.5539 -36.9115 -69.1479 -122.56 66.6459 149.827 -27.131 8.83943 4.09831 1.85878e-006 -2.44345e-006 -4.49402e-006 63.3999 -51.0455 64.2975 3.13533 20.2886 -0.0875486 3.78232 -2.18612 0.0721923 3.21161e-015 -3.97569e-016 -0 
41.3057 39.3251 18.7166 179.97 59.0055 -29.9888 -1.14106 9.83305 4.04296 -3.06358 19.5557 8.47724 -3.06359 19.5557 8.47724 -1.0413 13.994 0.251769 -0.126165 -0.250806 -0.325613 -34.6741 -1.53208 -6.53611 -34.7228 54.893 1.5851 7.76168 35.1286 -10.2405 6.62624 -15.622 -7.46441 -3.97569e-016 -2.71341e-014 -6.36111e-015 -7.95139e-016 -2.68359e-014 -0 -7.95139e-016 -2.71341e-014 -3.18055e-015 -3.97569e-016 -2.71341e-014 -6.36111e-015 -0.0145611 -8.83514e-005 -1.30652e-006 2.38542e-015 -2.5842e-015 1.59028e-014 -3.97569e-016 -2.71341e-014 -6.36111e-015 -0.0187488 -0.00117532 6.18776e-005 1.33611e-007 -2.3062e-008 -2.72254e-006 -3.97569e-016 -2.71341e-014 -6.36111e-015 -0.0122508 -0.00324203 0.000681452 -3.97569e-016 7.95139e-016 -3.18055e-015 -3.97569e-016 -2.71341e-014 -6.36111e-015 -7.95139e-016 -2.68359e-014 -0 -7.95139e-016 -2.71341e-014 -3.18055e-015 -18.6367 -12.3475 0.947614 71.7676 54.7916 -4.95446 -17.6547 31.519 39.7372 2.26965 -1.50102 -15.3349 -2.38542e-015 2.98177e-015 -9.54166e-015 -1.98785e-015 2.78299e-015 -9.54166e-015 -2.38542e-015 2.18663e-015 -6.36111e-015 -2.38542e-015 2.98177e-015 -9.54166e-015 0.0150358 -9.10743e-005 -8.27914e-006 -1.19271e-015 1.39149e-015 3.18055e-015 -2.38542e-015 2.98177e-015 -9.54166e-015 0.0189842 -0.00119015 -6.06463e-005 -3.97569e-016 -9.93923e-016 3.18055e-015 -2.38542e-015 2.98177e-015 -9.54166e-015 0.0123283 -0.00326434 -0.000674059 7.95139e-016 -5.96354e-016 3.18055e-015 -2.38542e-015 2.98177e-015 -9.54166e-015 -1.98785e-015 2.78299e-015 -9.54166e-015 -2.38542e-015 2.18663e-015 -6.36111e-015 -78.217 -37.4002 -69.6288 -123.734 66.675 150.866 -27.1393 8.81838 4.09825 1.78276e-006 3.82006e-006 -2.20308e-006 63.443 -51.0629 64.3518 3.14445 20.6521 -0.095724 3.78248 -2.19941 0.0726342 8.50384e-007 -4.23648e-007 5.06768e-008 
